# Motion Analysis HTR (source:MACFileLib v1.10)
[Header]
# KeyWord<space>Value<CR>
FileType htr
DataType HTRS
FileVersion 1
NumSegments 41
NumFrames 4
DataFrameRate 30
EulerRotationOrder ZYX
CalibrationUnits mm
RotationUnits Degrees
GlobalAxisofGravity Y
BoneLengthAxis Y
ScaleFactor 1.00
[SegmentNames&Hierarchy]
# ObjectName<tab>ParentObjectName<CR>
Hips	GLOBAL
Spine	Hips
Spine1	Spine
Spine2	Spine1
Neck	Spine2
Head	Neck
HeadTop_End	Head
LeftShoulder	Spine2
LeftArm	LeftShoulder
LeftForeArm	LeftArm
LeftHand	LeftForeArm
LeftHandIndex1	LeftHand
LeftHandIndex2	LeftHandIndex1
LeftHandIndex3	LeftHandIndex2
LeftHandIndex4	LeftHandIndex3
LeftHandThumb1	LeftHand
LeftHandThumb2	LeftHandThumb1
LeftHandThumb3	LeftHandThumb2
LeftHandThumb4	LeftHandThumb3
RightShoulder	Spine2
RightArm	RightShoulder
RightForeArm	RightArm
RightHand	RightForeArm
RightHandIndex1	RightHand
RightHandIndex2	RightHandIndex1
RightHandIndex3	RightHandIndex2
RightHandIndex4	RightHandIndex3
RightHandThumb1	RightHand
RightHandThumb2	RightHandThumb1
RightHandThumb3	RightHandThumb2
RightHandThumb4	RightHandThumb3
LeftUpLeg	Hips
LeftLeg	LeftUpLeg
LeftFoot	LeftLeg
LeftToeBase	LeftFoot
LeftToe_End	LeftToeBase
RightUpLeg	Hips
RightLeg	RightUpLeg
RightFoot	RightLeg
RightToeBase	RightFoot
RightToe_End	RightToeBase
[BasePosition]
# ObjectName<tab>Tx<tab>Ty<tab>Tz<tab>Rx<tab>Ry<tab>Rz<tab>BoneLength<CR>
Hips	10.843260	822.336530	-12.690015	97.234374	-43.527032	174.849775	3.937008
Spine	4.324737	0.000000	146.524372	-0.442183	9.379665	7.284196	3.937008
Spine1	0.476847	-0.000012	103.725081	-0.871372	2.187278	0.991217	3.937009
Spine2	3.027155	-0.000007	100.849966	-0.856348	2.202505	0.983497	3.937009
Neck	2.464486	0.000000	316.849807	4.558038	0.082407	13.220577	3.937009
Head	19.208952	0.000000	114.089235	-1.036836	8.371496	20.364578	3.937008
HeadTop_End	66.694439	0.603790	369.924862	-0.000000	0.000000	-0.000000	3.937007
LeftShoulder	-27.056324	109.128627	267.327386	-8.565021	1.115038	3.547030	3.937008
LeftArm	12.156755	138.949097	-90.169079	-54.766019	-56.609800	4.454988	3.937009
LeftForeArm	-22.856521	322.461693	-1.836662	-0.302170	-0.322459	-100.929973	3.937007
LeftHand	6.704860	280.135322	1.833648	-15.846243	2.068338	-9.074463	3.937005
LeftHandIndex1	0.000496	181.096966	-0.000534	-45.798740	0.257689	3.384679	41.837211
LeftHandIndex2	-0.000038	41.837230	-0.000153	-86.015313	6.505421	5.935432	3.937006
LeftHandIndex3	0.583954	38.302139	-0.980529	-52.157137	2.263406	3.625446	48.636157
LeftHandIndex4	-0.000343	48.636150	-0.000610	-0.000000	0.000001	-0.000000	3.937006
LeftHandThumb1	38.593987	62.739667	-32.070364	-5.518769	-6.008672	-11.751710	3.937005
LeftHandThumb2	29.216023	50.601241	-29.214383	10.158932	7.276710	43.024143	3.937005
LeftHandThumb3	33.539138	58.090932	-33.538490	27.449478	-0.419794	8.105151	3.937006
LeftHandThumb4	21.745217	37.663562	-21.743805	0.000000	-0.000000	0.000000	3.937006
RightShoulder	-27.056286	-109.128618	267.326928	-4.685218	2.959488	13.044747	3.937008
RightArm	12.156795	-138.949052	-90.168787	53.058048	-45.757452	41.653591	3.937008
RightForeArm	-26.341428	-322.196183	-1.718978	0.301654	-0.307495	100.556042	3.937007
RightHand	3.692093	-280.191534	1.808625	5.808632	-7.900957	19.147129	3.937008
RightHandIndex1	-1.954288	-181.043850	0.004425	45.112084	-0.559612	-2.574045	3.937008
RightHandIndex2	-0.530930	-49.162130	0.001984	87.701702	4.310797	-5.291269	-43.013796
RightHandIndex3	-0.139179	-43.013899	0.000000	50.415822	1.243528	-3.418275	3.937006
RightHandIndex4	-0.403557	-37.222897	-0.262985	0.000003	-0.000001	0.000000	3.937008
RightHandThumb1	36.574477	-63.444746	-33.035354	2.187272	-3.531242	4.616755	3.937007
RightHandThumb2	38.019288	-43.170311	-30.958323	-13.410386	5.627328	-41.222229	3.937008
RightHandThumb3	38.604741	-49.688269	-40.804830	-27.734995	0.774354	-18.849507	3.937009
RightHandThumb4	29.049298	-31.083600	-23.540151	-0.000000	0.000000	-0.000000	3.937007
LeftUpLeg	8.584090	130.259025	-71.382379	14.394360	-34.691706	7.410785	3.937006
LeftLeg	31.445686	1.243190	-357.658221	-6.832922	58.391776	-12.949990	3.937007
LeftFoot	-57.092365	-1.117859	-401.736289	-12.911916	-21.418936	-8.391425	3.937008
LeftToeBase	167.567879	12.843742	-168.310219	0.000000	-1.594029	0.000001	3.937008
LeftToe_End	133.766076	1.147575	3.990080	-0.000000	0.000000	-0.000003	3.937007
RightUpLeg	8.584076	-130.259035	-71.382379	-25.668216	-24.284313	-10.276783	3.937008
RightLeg	31.445660	-1.243134	-357.658356	-20.790917	57.727156	-15.597428	3.937008
RightFoot	-57.092412	1.117859	-401.736472	27.286299	-24.702836	-7.771982	3.937008
RightToeBase	167.567885	-12.843706	-168.310244	0.000000	-0.012977	-0.000000	3.937010
RightToe_End	133.766079	-1.147614	3.990084	-0.000000	-0.000000	-0.000001	3.937010
[Hips]
# Tx<tab>Ty<tab>Tz<tab>Rx<tab>Ry<tab>Rz<tab>BoneScaleFactor<CR>
37	45.799891	26.491600	185.159091	-2.181845	-3.977405	-7.913500	1.000000
38	35.436037	11.083432	154.039757	-1.490787	-4.523525	-5.658827	1.000000
39	25.890941	-2.425336	122.192258	-0.998998	-4.696473	-3.973796	1.000000
40	18.571781	-11.334870	91.258899	-0.484085	-4.582904	-3.094429	1.000000
[Spine]
# Tx<tab>Ty<tab>Tz<tab>Rx<tab>Ry<tab>Rz<tab>BoneScaleFactor<CR>
37	-0.000015	-0.000019	-0.000087	-1.413802	1.143067	-0.445386	1.000000
38	0.000005	0.000000	0.000011	-1.547378	1.123537	-0.386534	1.000000
39	0.000005	0.000000	0.000076	-1.447937	1.001690	-0.224854	1.000000
40	-0.000015	0.000000	-0.000087	-1.188180	0.861535	-0.001048	1.000000
[Spine1]
# Tx<tab>Ty<tab>Tz<tab>Rx<tab>Ry<tab>Rz<tab>BoneScaleFactor<CR>
37	0.000014	-0.000007	-0.000024	-1.215201	2.249247	-0.630937	1.000000
38	0.000000	-0.000007	0.000008	-1.445319	2.115221	-0.457377	1.000000
39	0.000012	0.000002	-0.000016	-1.420259	1.922070	-0.138559	1.000000
40	0.000007	-0.000002	-0.000024	-1.273155	1.789409	0.293694	1.000000
[Spine2]
# Tx<tab>Ty<tab>Tz<tab>Rx<tab>Ry<tab>Rz<tab>BoneScaleFactor<CR>
37	-0.000001	-0.000002	-0.000099	-1.109883	2.307310	-0.665562	1.000000
38	-0.000005	0.000002	-0.000015	-1.365565	2.168176	-0.478162	1.000000
39	-0.000010	0.000002	-0.000015	-1.359198	1.962338	-0.134611	1.000000
40	-0.000006	-0.000002	-0.000046	-1.224677	1.809337	0.332280	1.000000
[Neck]
# Tx<tab>Ty<tab>Tz<tab>Rx<tab>Ry<tab>Rz<tab>BoneScaleFactor<CR>
37	-0.000000	-0.000029	0.000028	3.934739	-2.191227	2.353866	1.000000
38	-0.000019	0.000000	0.000253	3.853925	-1.883997	1.741427	1.000000
39	0.000009	0.000000	-0.000072	3.580733	-1.802724	1.185704	1.000000
40	0.000008	-0.000005	-0.000068	3.190606	-1.834350	0.702486	1.000000
[Head]
# Tx<tab>Ty<tab>Tz<tab>Rx<tab>Ry<tab>Rz<tab>BoneScaleFactor<CR>
37	-0.000006	0.000038	-0.000035	0.074832	-2.185410	7.007589	1.000000
38	0.000001	0.000019	-0.000144	1.638100	-1.780003	5.061527	1.000000
39	0.000005	0.000000	0.000127	2.665787	-1.376994	3.479359	1.000000
40	-0.000009	-0.000019	-0.000204	3.193161	-1.329549	2.223188	1.000000
[HeadTop_End]
# Tx<tab>Ty<tab>Tz<tab>Rx<tab>Ry<tab>Rz<tab>BoneScaleFactor<CR>
37	-0.000038	0.000000	0.000153	0.000000	-0.000000	0.000000	1.000000
38	-0.000032	-0.000038	0.000140	0.000000	-0.000000	0.000000	1.000000
39	-0.000114	0.000038	0.000305	-0.000001	-0.000000	0.000000	1.000000
40	-0.000091	-0.000019	0.000069	-0.000000	0.000000	-0.000000	1.000000
[LeftShoulder]
# Tx<tab>Ty<tab>Tz<tab>Rx<tab>Ry<tab>Rz<tab>BoneScaleFactor<CR>
37	0.000023	-0.000026	-0.000117	8.114161	3.317593	-3.690824	1.000000
38	-0.000012	0.000008	0.000097	7.983806	3.166798	-3.552733	1.000000
39	0.000025	-0.000025	-0.000213	7.495610	2.479809	-1.942413	1.000000
40	0.000022	-0.000059	-0.000198	6.306935	1.643596	0.144213	1.000000
[LeftArm]
# Tx<tab>Ty<tab>Tz<tab>Rx<tab>Ry<tab>Rz<tab>BoneScaleFactor<CR>
37	-0.000022	-0.000032	0.000020	2.289293	-12.677493	3.379956	1.000000
38	-0.000035	0.000041	-0.000020	0.882197	-10.777914	3.340347	1.000000
39	-0.000003	0.000016	-0.000132	-2.221670	-7.566511	5.053878	1.000000
40	-0.000045	-0.000055	0.000048	-5.284240	-3.663227	7.298958	0.999999
[LeftForeArm]
# Tx<tab>Ty<tab>Tz<tab>Rx<tab>Ry<tab>Rz<tab>BoneScaleFactor<CR>
37	-0.000078	-0.000014	0.000038	-0.007319	0.068955	-10.601486	1.000000
38	-0.000088	0.000209	0.000037	-0.005669	0.060188	-9.239158	1.000001
39	-0.000080	0.000087	-0.000000	-0.004611	0.053921	-8.273067	1.000000
40	-0.000147	0.000003	0.000077	-0.003945	0.049517	-7.595197	1.000000
[LeftHand]
# Tx<tab>Ty<tab>Tz<tab>Rx<tab>Ry<tab>Rz<tab>BoneScaleFactor<CR>
37	-0.000034	0.000170	-0.000037	0.776209	-9.323547	-0.340119	1.000001
38	0.000007	0.000199	0.000002	-0.070873	-8.247862	0.347087	1.000001
39	0.000043	0.000191	-0.000037	-0.316883	-6.851573	0.644967	1.000001
40	-0.000036	0.000009	0.000001	0.012537	-5.612688	0.279899	1.000000
[LeftHandIndex1]
# Tx<tab>Ty<tab>Tz<tab>Rx<tab>Ry<tab>Rz<tab>BoneScaleFactor<CR>
37	0.000038	0.000110	0.000076	-0.000000	-0.000001	-0.000001	1.000001
38	-0.000038	0.000178	0.000076	-0.000007	0.000000	-0.000001	1.000001
39	-0.000038	0.000123	-0.000000	-0.000007	0.000000	-0.000000	1.000001
40	0.000038	0.000131	-0.000000	-0.000007	0.000001	-0.000000	1.000000
[LeftHandIndex2]
# Tx<tab>Ty<tab>Tz<tab>Rx<tab>Ry<tab>Rz<tab>BoneScaleFactor<CR>
37	0.000038	-0.000032	-0.000000	0.000007	0.000001	-0.000000	1.000000
38	0.000038	0.000019	-0.000000	0.000000	0.000002	0.000004	1.000001
39	0.000038	0.000010	-0.000000	0.000000	0.000001	0.000002	1.000000
40	-0.000038	-0.000006	0.000000	0.000000	0.000004	0.000000	1.000000
[LeftHandIndex3]
# Tx<tab>Ty<tab>Tz<tab>Rx<tab>Ry<tab>Rz<tab>BoneScaleFactor<CR>
37	0.000076	0.000164	-0.000000	0.000000	0.000001	0.000002	1.000000
38	0.000039	0.000182	-0.000001	0.000000	0.000001	0.000000	1.000001
39	0.000077	0.000014	-0.000000	0.000000	0.000002	0.000001	1.000000
40	0.000038	0.000158	-0.000000	0.000000	0.000000	0.000001	1.000000
[LeftHandIndex4]
# Tx<tab>Ty<tab>Tz<tab>Rx<tab>Ry<tab>Rz<tab>BoneScaleFactor<CR>
37	-0.000038	0.000011	0.000153	-0.000002	-0.000000	0.000000	1.000000
38	-0.000038	0.000044	0.000076	0.000000	-0.000001	0.000001	1.000001
39	-0.000000	-0.000138	0.000076	0.000000	-0.000001	-0.000000	1.000000
40	-0.000038	0.000084	0.000076	0.000000	-0.000001	0.000002	1.000000
[LeftHandThumb1]
# Tx<tab>Ty<tab>Tz<tab>Rx<tab>Ry<tab>Rz<tab>BoneScaleFactor<CR>
37	0.000023	0.000038	-0.000019	-0.000004	-0.000002	0.000002	1.000001
38	0.000114	0.000138	0.000045	-0.000003	0.000002	0.000002	1.000001
39	0.000026	0.000043	-0.000098	-0.000004	0.000002	0.000001	1.000001
40	0.000088	0.000095	-0.000010	-0.000002	0.000002	0.000002	1.000000
[LeftHandThumb2]
# Tx<tab>Ty<tab>Tz<tab>Rx<tab>Ry<tab>Rz<tab>BoneScaleFactor<CR>
37	-0.000020	0.000107	-0.000018	0.000002	0.000001	0.000001	1.000001
38	0.000062	-0.000034	-0.000024	0.000006	0.000000	0.000013	1.000001
39	0.000013	0.000023	-0.000013	0.000002	-0.000002	0.000001	1.000000
40	0.000047	0.000015	-0.000009	0.000006	-0.000003	0.000002	1.000000
[LeftHandThumb3]
# Tx<tab>Ty<tab>Tz<tab>Rx<tab>Ry<tab>Rz<tab>BoneScaleFactor<CR>
37	-0.000018	0.000035	0.000056	0.000007	0.000002	0.000000	1.000000
38	-0.000015	0.000040	0.000053	0.000000	0.000002	-0.000003	1.000001
39	0.000056	0.000031	0.000059	0.000000	0.000002	-0.000003	1.000001
40	-0.000025	-0.000054	0.000064	0.000004	-0.000000	-0.000006	1.000000
[LeftHandThumb4]
# Tx<tab>Ty<tab>Tz<tab>Rx<tab>Ry<tab>Rz<tab>BoneScaleFactor<CR>
37	0.000081	0.000009	0.000071	0.000000	0.000002	-0.000002	1.000000
38	0.000086	0.000017	0.000028	-0.000000	0.000001	0.000001	1.000000
39	-0.000068	0.000014	0.000030	-0.000000	0.000000	-0.000002	1.000000
40	-0.000073	-0.000071	0.000035	-0.000000	0.000000	-0.000000	1.000000
[RightShoulder]
# Tx<tab>Ty<tab>Tz<tab>Rx<tab>Ry<tab>Rz<tab>BoneScaleFactor<CR>
37	-0.000015	0.000036	0.000188	1.532420	-0.146620	-4.467286	1.000000
38	-0.000012	-0.000008	0.000249	0.496939	-0.178657	-4.015260	1.000000
39	-0.000013	0.000025	0.000092	-0.488237	-0.182360	-3.302391	1.000000
40	0.000003	0.000050	-0.000045	-1.107203	-0.159951	-2.546903	1.000000
[RightArm]
# Tx<tab>Ty<tab>Tz<tab>Rx<tab>Ry<tab>Rz<tab>BoneScaleFactor<CR>
37	0.000017	0.000021	-0.000292	4.637100	-1.042396	3.422117	1.000000
38	-0.000018	-0.000049	-0.000159	5.833291	-2.798238	1.797297	1.000000
39	-0.000022	0.000051	-0.000132	6.388322	-3.627483	0.184365	1.000000
40	-0.000025	0.000044	0.000041	6.092759	-3.523673	-1.251378	1.000000
[RightForeArm]
# Tx<tab>Ty<tab>Tz<tab>Rx<tab>Ry<tab>Rz<tab>BoneScaleFactor<CR>
37	0.000028	-0.000198	0.000037	0.001425	0.023622	3.659830	1.000001
38	0.000020	-0.000258	-0.000001	0.001376	0.023097	3.580678	1.000001
39	0.000030	-0.000136	-0.000001	0.001324	0.022510	3.482102	1.000000
40	0.000070	-0.000188	0.000076	0.001228	0.021243	3.286505	1.000000
[RightHand]
# Tx<tab>Ty<tab>Tz<tab>Rx<tab>Ry<tab>Rz<tab>BoneScaleFactor<CR>
37	0.000001	0.000013	0.000115	1.654195	1.409856	-3.688931	1.000000
38	-0.000037	-0.000106	0.000077	2.003866	1.719691	-3.201243	1.000001
39	0.000076	0.000098	-0.000000	2.291653	2.236478	-2.902326	1.000000
40	-0.000000	0.000021	0.000076	2.483630	2.693646	-2.802913	1.000000
[RightHandIndex1]
# Tx<tab>Ty<tab>Tz<tab>Rx<tab>Ry<tab>Rz<tab>BoneScaleFactor<CR>
37	-0.000020	-0.000117	-0.000076	0.000003	0.000002	-0.000000	1.000000
38	0.000018	-0.000020	0.000000	-0.000000	-0.000001	-0.000003	1.000001
39	-0.000019	0.000090	-0.000000	-0.000000	0.000001	-0.000002	1.000000
40	0.000038	0.000014	0.000076	-0.000000	-0.000000	-0.000003	1.000000
[RightHandIndex2]
# Tx<tab>Ty<tab>Tz<tab>Rx<tab>Ry<tab>Rz<tab>BoneScaleFactor<CR>
37	-0.000038	-0.000027	-0.000000	-0.000007	-0.000001	-0.000001	1.000000
38	-0.000000	-0.000004	0.000000	-0.000007	-0.000000	0.000000	1.000000
39	0.000000	0.000033	-0.000000	-0.000000	0.000003	-0.000000	0.999999
40	0.000000	0.000026	-0.000000	0.000007	0.000001	-0.000001	0.999999
[RightHandIndex3]
# Tx<tab>Ty<tab>Tz<tab>Rx<tab>Ry<tab>Rz<tab>BoneScaleFactor<CR>
37	0.000019	-0.000042	0.000000	0.000000	0.000003	0.000001	1.000001
38	-0.000019	-0.000052	-0.000038	0.000007	0.000000	-0.000001	1.000001
39	0.000019	-0.000013	0.000000	-0.000007	0.000001	-0.000000	1.000000
40	0.000019	-0.000020	0.000000	0.000007	0.000001	-0.000002	1.000000
[RightHandIndex4]
# Tx<tab>Ty<tab>Tz<tab>Rx<tab>Ry<tab>Rz<tab>BoneScaleFactor<CR>
37	-0.000038	0.000057	-0.000000	-0.000003	0.000001	0.000003	1.000001
38	-0.000000	-0.000031	-0.000000	-0.000003	-0.000000	-0.000001	1.000001
39	0.000038	0.000085	0.000076	-0.000002	0.000000	-0.000000	1.000000
40	0.000000	0.000000	0.000076	-0.000003	0.000002	-0.000000	1.000000
[RightHandThumb1]
# Tx<tab>Ty<tab>Tz<tab>Rx<tab>Ry<tab>Rz<tab>BoneScaleFactor<CR>
37	0.000008	-0.000014	-0.000084	0.000001	-0.000001	-0.000003	1.000000
38	-0.000019	-0.000034	-0.000018	0.000001	-0.000002	-0.000003	1.000001
39	-0.000022	0.000081	-0.000074	-0.000000	-0.000002	-0.000003	1.000000
40	-0.000003	0.000005	0.000003	0.000000	-0.000002	-0.000001	1.000000
[RightHandThumb2]
# Tx<tab>Ty<tab>Tz<tab>Rx<tab>Ry<tab>Rz<tab>BoneScaleFactor<CR>
37	0.000009	0.000066	-0.000007	-0.000001	-0.000001	-0.000000	1.000000
38	0.000058	0.000130	-0.000016	0.000000	-0.000002	-0.000000	1.000000
39	-0.000003	0.000156	0.000002	0.000001	0.000003	0.000000	1.000000
40	0.000003	0.000073	-0.000002	-0.000003	-0.000000	-0.000001	1.000000
[RightHandThumb3]
# Tx<tab>Ty<tab>Tz<tab>Rx<tab>Ry<tab>Rz<tab>BoneScaleFactor<CR>
37	-0.000006	0.000084	0.000159	0.000000	0.000004	-0.000002	1.000000
38	0.000009	0.000065	0.000029	0.000000	0.000000	-0.000002	1.000000
39	-0.000085	0.000164	0.000047	0.000000	0.000000	-0.000002	1.000000
40	-0.000009	0.000164	0.000086	0.000004	0.000005	-0.000001	1.000000
[RightHandThumb4]
# Tx<tab>Ty<tab>Tz<tab>Rx<tab>Ry<tab>Rz<tab>BoneScaleFactor<CR>
37	0.000083	0.000146	-0.000024	0.000001	0.000000	-0.000001	1.000000
38	0.000094	0.000057	-0.000014	0.000001	-0.000000	0.000001	1.000001
39	0.000004	0.000072	-0.000042	-0.000001	0.000000	-0.000000	1.000000
40	0.000004	0.000072	-0.000023	0.000001	-0.000000	0.000001	1.000000
[LeftUpLeg]
# Tx<tab>Ty<tab>Tz<tab>Rx<tab>Ry<tab>Rz<tab>BoneScaleFactor<CR>
37	-0.000029	-0.000019	0.000082	-0.955479	8.242141	1.256569	1.000000
38	0.000010	0.000038	-0.000005	0.174546	5.651897	0.255280	1.000000
39	-0.000010	0.000029	0.000076	0.892358	3.202812	-0.953036	1.000000
40	-0.000010	0.000019	0.000005	1.385742	1.594368	-2.054328	1.000000
[LeftLeg]
# Tx<tab>Ty<tab>Tz<tab>Rx<tab>Ry<tab>Rz<tab>BoneScaleFactor<CR>
37	-0.000005	0.000019	0.000054	1.824890	-3.565789	-1.613438	1.000000
38	0.000005	-0.000019	-0.000054	2.020189	-2.217340	-1.774148	1.000000
39	0.000000	0.000019	-0.000038	2.786816	-1.749026	-1.818336	1.000000
40	0.000038	0.000019	0.000000	3.669723	-2.754675	-1.798427	1.000000
[LeftFoot]
# Tx<tab>Ty<tab>Tz<tab>Rx<tab>Ry<tab>Rz<tab>BoneScaleFactor<CR>
37	-0.000059	0.000038	0.000091	4.191588	-1.929024	-2.715429	1.000000
38	0.000020	-0.000000	0.000008	1.360415	-0.794330	-3.624725	1.000000
39	-0.000061	-0.000000	-0.000137	-1.777436	0.427811	-3.255369	1.000000
40	-0.000052	0.000000	0.000000	-4.810917	2.054557	-2.041351	1.000000
[LeftToeBase]
# Tx<tab>Ty<tab>Tz<tab>Rx<tab>Ry<tab>Rz<tab>BoneScaleFactor<CR>
37	0.000006	-0.000001	-0.000006	-0.000000	-0.298320	-0.000015	1.000000
38	0.000006	0.000037	0.000013	-0.000001	0.029643	0.000015	1.000000
39	0.000032	-0.000037	0.000006	-0.000001	0.055156	0.000014	1.000000
40	0.000057	0.000038	-0.000019	-0.000002	0.379247	0.000042	1.000000
[LeftToe_End]
# Tx<tab>Ty<tab>Tz<tab>Rx<tab>Ry<tab>Rz<tab>BoneScaleFactor<CR>
37	0.000010	-0.000038	-0.000001	0.000000	-0.000000	0.000002	1.000000
38	-0.000010	-0.000000	-0.000001	0.000000	0.000000	0.000003	1.000000
39	-0.000009	0.000000	0.000001	0.000000	-0.000000	0.000004	1.000000
40	0.000001	0.000000	0.000001	-0.000000	-0.000000	0.000001	1.000000
[RightUpLeg]
# Tx<tab>Ty<tab>Tz<tab>Rx<tab>Ry<tab>Rz<tab>BoneScaleFactor<CR>
37	0.000004	0.000000	0.000005	-5.568186	-0.262327	3.546639	1.000000
38	0.000005	-0.000029	-0.000005	-6.750662	3.668270	4.567177	1.000000
39	-0.000014	-0.000019	0.000076	-7.168688	6.615951	4.448115	1.000000
40	-0.000015	0.000000	0.000005	-7.575291	7.196086	3.863992	1.000000
[RightLeg]
# Tx<tab>Ty<tab>Tz<tab>Rx<tab>Ry<tab>Rz<tab>BoneScaleFactor<CR>
37	-0.000007	0.000000	0.000081	0.155905	-6.029329	0.556817	1.000000
38	0.000045	-0.000038	-0.000081	-0.363646	-6.326631	-1.351317	1.000000
39	0.000000	0.000038	0.000000	-0.127415	-6.747019	0.745031	1.000000
40	-0.000007	0.000000	0.000119	0.603917	-6.355329	4.300295	1.000000
[RightFoot]
# Tx<tab>Ty<tab>Tz<tab>Rx<tab>Ry<tab>Rz<tab>BoneScaleFactor<CR>
37	0.000009	0.000038	0.000061	-10.767949	24.058321	-5.987108	1.000000
38	-0.000022	0.000000	-0.000122	-5.387666	18.095957	-4.598105	1.000000
39	-0.000000	-0.000000	0.000030	-2.075733	9.144917	-3.216407	1.000000
40	0.000010	0.000000	0.000076	-0.812346	2.509929	-2.211291	1.000000
[RightToeBase]
# Tx<tab>Ty<tab>Tz<tab>Rx<tab>Ry<tab>Rz<tab>BoneScaleFactor<CR>
37	-0.000019	0.000003	0.000038	7.149389	-8.204032	-0.491066	1.000000
38	-0.000000	-0.000041	-0.000019	1.205697	-8.097901	-0.014070	1.000000
39	0.000013	0.000037	0.000006	0.000020	-5.770649	-0.000013	1.000000
40	-0.000013	0.000001	-0.000006	-0.000003	-2.351041	0.000022	1.000000
[RightToe_End]
# Tx<tab>Ty<tab>Tz<tab>Rx<tab>Ry<tab>Rz<tab>BoneScaleFactor<CR>
37	-0.000039	0.000019	0.000002	0.000001	-0.000000	0.000001	1.000000
38	0.000067	-0.000000	0.000005	0.000001	0.000000	0.000001	1.000000
39	0.000028	0.000000	-0.000005	0.000001	0.000000	0.000000	1.000000
40	-0.000019	0.000038	-0.000005	0.000001	0.000000	0.000001	1.000000
[EndOfFile]
